<svg width="64" height="57" viewBox="0 0 64 57" fill="none" xmlns="http://www.w3.org/2000/svg">
<rect width="64" height="57" rx="10" fill="white"/>
<g clip-path="url(#clip0_273_11334)">
<path d="M15.4062 28.418H34.4251C35.0556 28.418 35.6603 28.6684 36.1062 29.1143C36.552 29.5601 36.8025 30.1648 36.8025 30.7953V42.6822C36.8025 43.3127 36.552 43.9174 36.1062 44.3632C35.6603 44.8091 35.0556 45.0596 34.4251 45.0596H15.4062C14.7757 45.0596 14.171 44.8091 13.7251 44.3632C13.2793 43.9174 13.0288 43.3127 13.0288 42.6822V30.7953C13.0288 30.1648 13.2793 29.5601 13.7251 29.1143C14.171 28.6684 14.7757 28.418 15.4062 28.418ZM32.0478 30.7953H17.7835C17.7835 31.4259 17.5331 32.0305 17.0872 32.4764C16.6414 32.9222 16.0367 33.1727 15.4062 33.1727V40.3048C16.0367 40.3048 16.6414 40.5553 17.0872 41.0011C17.5331 41.447 17.7835 42.0517 17.7835 42.6822H32.0478C32.0478 42.0517 32.2982 41.447 32.7441 41.0011C33.1899 40.5553 33.7946 40.3048 34.4251 40.3048V33.1727C33.7946 33.1727 33.1899 32.9222 32.7441 32.4764C32.2982 32.0305 32.0478 31.4259 32.0478 30.7953ZM20.1609 33.1727H22.5383V40.3048H20.1609V33.1727ZM27.293 37.9274C27.6083 37.9274 27.9106 37.8022 28.1336 37.5793C28.3565 37.3564 28.4817 37.054 28.4817 36.7388C28.4817 36.4235 28.3565 36.1212 28.1336 35.8982C27.9106 35.6753 27.6083 35.5501 27.293 35.5501C26.9778 35.5501 26.6754 35.6753 26.4525 35.8982C26.2296 36.1212 26.1043 36.4235 26.1043 36.7388C26.1043 37.054 26.2296 37.3564 26.4525 37.5793C26.6754 37.8022 26.9778 37.9274 27.293 37.9274ZM27.293 40.3048C26.3472 40.3048 25.4402 39.9291 24.7714 39.2603C24.1027 38.5916 23.727 37.6845 23.727 36.7388C23.727 35.793 24.1027 34.8859 24.7714 34.2172C25.4402 33.5484 26.3472 33.1727 27.293 33.1727C28.2388 33.1727 29.1458 33.5484 29.8146 34.2172C30.4834 34.8859 30.8591 35.793 30.8591 36.7388C30.8591 37.6845 30.4834 38.5916 29.8146 39.2603C29.1458 39.9291 28.2388 40.3048 27.293 40.3048Z" fill="#303030"/>
</g>
<g clip-path="url(#clip1_273_11334)">
<path d="M29.4482 14.377H48.4671C49.0976 14.377 49.7023 14.6274 50.1482 15.0733C50.594 15.5191 50.8445 16.1238 50.8445 16.7543V28.6412C50.8445 29.2717 50.594 29.8764 50.1482 30.3222C49.7023 30.7681 49.0976 31.0185 48.4671 31.0185H29.4482C28.8177 31.0185 28.213 30.7681 27.7671 30.3222C27.3213 29.8764 27.0708 29.2717 27.0708 28.6412V16.7543C27.0708 16.1238 27.3213 15.5191 27.7671 15.0733C28.213 14.6274 28.8177 14.377 29.4482 14.377ZM46.0898 16.7543H31.8255C31.8255 17.3848 31.5751 17.9895 31.1292 18.4354C30.6834 18.8812 30.0787 19.1317 29.4482 19.1317V26.2638C30.0787 26.2638 30.6834 26.5143 31.1292 26.9601C31.5751 27.406 31.8255 28.0107 31.8255 28.6412H46.0898C46.0898 28.0107 46.3402 27.406 46.7861 26.9601C47.2319 26.5143 47.8366 26.2638 48.4671 26.2638V19.1317C47.8366 19.1317 47.2319 18.8812 46.7861 18.4354C46.3402 17.9895 46.0898 17.3848 46.0898 16.7543ZM34.2029 19.1317H36.5803V26.2638H34.2029V19.1317ZM41.335 23.8864C41.6503 23.8864 41.9526 23.7612 42.1755 23.5383C42.3985 23.3154 42.5237 23.013 42.5237 22.6977C42.5237 22.3825 42.3985 22.0801 42.1755 21.8572C41.9526 21.6343 41.6503 21.5091 41.335 21.5091C41.0198 21.5091 40.7174 21.6343 40.4945 21.8572C40.2716 22.0801 40.1463 22.3825 40.1463 22.6977C40.1463 23.013 40.2716 23.3154 40.4945 23.5383C40.7174 23.7612 41.0198 23.8864 41.335 23.8864ZM41.335 26.2638C40.3892 26.2638 39.4822 25.8881 38.8134 25.2193C38.1447 24.5506 37.769 23.6435 37.769 22.6977C37.769 21.752 38.1447 20.8449 38.8134 20.1762C39.4822 19.5074 40.3892 19.1317 41.335 19.1317C42.2808 19.1317 43.1878 19.5074 43.8566 20.1762C44.5254 20.8449 44.9011 21.752 44.9011 22.6977C44.9011 23.6435 44.5254 24.5506 43.8566 25.2193C43.1878 25.8881 42.2808 26.2638 41.335 26.2638Z" fill="#303030"/>
</g>
<defs>
<clipPath id="clip0_273_11334">
<rect width="28.5295" height="28.5295" fill="white" transform="translate(10.4287 21.4707)"/>
</clipPath>
<clipPath id="clip1_273_11334">
<rect width="28.5295" height="28.5295" fill="white" transform="translate(24.4707 7.42969)"/>
</clipPath>
</defs>
</svg>
