<svg width="20" height="20" viewBox="0 0 20 20" fill="none" xmlns="http://www.w3.org/2000/svg">
<path d="M14.4444 15.5556V14.4444H11.1111V11.1111H14.4444V13.3333H16.6667V15.5556H15.5556V17.7778H13.3333V20H11.1111V16.6667H13.3333V15.5556H14.4444ZM20 20H15.5556V17.7778H17.7778V15.5556H20V20ZM0 0H8.88889V8.88889H0V0ZM2.22222 2.22222V6.66667H6.66667V2.22222H2.22222ZM11.1111 0H20V8.88889H11.1111V0ZM13.3333 2.22222V6.66667H17.7778V2.22222H13.3333ZM0 11.1111H8.88889V20H0V11.1111ZM2.22222 13.3333V17.7778H6.66667V13.3333H2.22222ZM16.6667 11.1111H20V13.3333H16.6667V11.1111ZM3.33333 3.33333H5.55556V5.55556H3.33333V3.33333ZM3.33333 14.4444H5.55556V16.6667H3.33333V14.4444ZM14.4444 3.33333H16.6667V5.55556H14.4444V3.33333Z" fill="#323232" fill-opacity="0.4"/>
</svg>
