<svg width="14" height="17" viewBox="0 0 14 17" fill="none" xmlns="http://www.w3.org/2000/svg">
<path d="M1.75 12.5H12.25V7.27325C12.25 4.361 9.8995 2 7 2C4.1005 2 1.75 4.361 1.75 7.27325V12.5ZM7 0.5C10.7275 0.5 13.75 3.53225 13.75 7.27325V14H0.25V7.27325C0.25 3.53225 3.2725 0.5 7 0.5ZM5.125 14.75H8.875C8.875 15.2473 8.67746 15.7242 8.32582 16.0758C7.97419 16.4275 7.49728 16.625 7 16.625C6.50272 16.625 6.02581 16.4275 5.67417 16.0758C5.32254 15.7242 5.125 15.2473 5.125 14.75Z" fill="black"/>
</svg>
