<svg width="14" height="12" viewBox="0 0 14 12" fill="none" xmlns="http://www.w3.org/2000/svg">
<path d="M3.24208 2.5013V0.751302C3.24208 0.596592 3.31749 0.448219 3.45173 0.338823C3.58597 0.229427 3.76803 0.167969 3.95787 0.167969H12.5474C12.7372 0.167969 12.9193 0.229427 13.0535 0.338823C13.1878 0.448219 13.2632 0.596592 13.2632 0.751302V8.91797C13.2632 9.07268 13.1878 9.22105 13.0535 9.33045C12.9193 9.43984 12.7372 9.5013 12.5474 9.5013H10.4V11.2513C10.4 11.5733 10.0779 11.8346 9.67921 11.8346H1.09971C1.00532 11.8351 0.911741 11.8204 0.82436 11.7913C0.73698 11.7621 0.657517 11.7193 0.590537 11.6651C0.523557 11.6109 0.47038 11.5464 0.434061 11.4754C0.397743 11.4044 0.378999 11.3282 0.378906 11.2513L0.381054 3.08464C0.381054 2.76264 0.703161 2.5013 1.10186 2.5013H3.24208ZM4.67367 2.5013H10.4V8.33463H11.8316V1.33464H4.67367V2.5013Z" fill="#016CBA"/>
</svg>
