<svg width="64" height="57" viewBox="0 0 64 57" fill="none" xmlns="http://www.w3.org/2000/svg">
<rect width="64" height="57" rx="10" fill="white"/>
<path fill-rule="evenodd" clip-rule="evenodd" d="M27.1984 9.09499C19.9142 10.0502 12.7071 17.5219 13.0092 23.8053C13.0853 25.3886 13.4269 26.2143 14.7462 28.0044L15.4619 28.9754L15.1427 29.5939C14.8619 30.1377 14.4982 31.0137 13.4951 33.5623C10.279 41.7328 24.8031 51.3057 33.701 46.8801C35.6612 45.9053 36.2589 45.1358 37.5282 41.9531C37.8884 41.0497 38.2276 40.3106 38.2819 40.3106C38.3362 40.3106 38.5361 40.3668 38.726 40.4354C42.1298 41.6659 44.036 41.2085 47.3603 38.3639C49.9687 36.1319 50.5062 35.3351 50.8798 33.1467C52.0313 26.4009 44.7014 16.7249 37.8367 15.9292L37.3749 15.8757L37.0931 15.3503C36.6931 14.6048 34.1904 11.2708 33.6359 10.7449C32.1669 9.35146 29.8233 8.75076 27.1984 9.09499ZM18.7826 9.68832C16.6957 11.0274 14.1752 13.4858 13.2795 15.0558C13.2356 15.1328 14.1227 15.8151 14.2668 15.8151C14.2892 15.8151 14.5529 15.4774 14.8528 15.0648C15.9335 13.5782 17.899 11.7801 19.6555 10.6715L20.2668 10.2856L19.9721 9.7262C19.6182 9.05419 19.7638 9.05882 18.7826 9.68832ZM30.5738 10.5324C36.6051 12.1425 34.7988 20.8295 27.4022 25.7854C20.042 30.717 12.7864 28.2895 14.5258 21.4774C16.1987 14.9261 24.8725 9.01039 30.5738 10.5324ZM25.8525 14.3703C20.4414 15.2573 21.4131 14.5078 19.1855 19.513C16.7486 24.9884 16.8264 24.7431 17.432 25.0403C17.7218 25.1827 27.1165 23.6748 27.3395 23.4501C27.5119 23.2767 31.3504 14.6561 31.4075 14.3146C31.551 13.4556 31.424 13.4569 25.8525 14.3703ZM38.9548 14.1812C38.9548 14.4999 38.9535 14.7881 38.9518 14.8215C38.9469 14.9253 40.0743 15.0694 40.1094 14.9694C40.1263 14.9215 40.1891 14.6389 40.2489 14.3413C40.3754 13.7125 40.4118 13.7453 39.4891 13.6545L38.9548 13.6018V14.1812ZM41.6647 14.6931C41.3683 15.5129 41.3391 15.4295 42.0222 15.7158C43.9894 16.5407 46.4287 18.4674 47.9321 20.3841L48.4782 21.0803L48.803 20.8385C48.9817 20.7057 49.2148 20.5284 49.3212 20.4447L49.5147 20.2924L49.0483 19.6963C47.486 17.699 45.1701 15.7957 43.0319 14.7519C41.8466 14.1733 41.8525 14.1735 41.6647 14.6931ZM28.2029 15.4267C28.0133 15.6209 22.7644 19.6928 22.7378 19.6662C22.7016 19.6302 22.2715 16.3505 22.2981 16.314C22.3205 16.2834 27.8905 15.3533 28.1444 15.3378C28.2652 15.3305 28.278 15.3498 28.2029 15.4267ZM36.2694 16.6566C36.4014 17.0367 36.4504 17.4011 36.478 18.2079C36.5313 19.7623 36.5095 19.7796 35.7647 18.7763L35.1476 17.9449L35.3095 17.1309C35.3986 16.6832 35.4714 16.1188 35.4714 15.8768C35.4714 15.1158 35.8694 15.5048 36.2694 16.6566ZM29.0761 16.5329C28.766 17.3518 26.6242 22.0567 26.5608 22.0585C26.5148 22.0597 25.927 21.8207 25.2545 21.5275C24.582 21.2342 23.912 20.9424 23.7658 20.879L23.4998 20.7638L26.2991 18.5756C29.4296 16.1284 29.1519 16.3327 29.0761 16.5329ZM38.7178 17.4677C44.4469 19.1091 49.6523 25.8586 49.6728 31.6723C49.7032 40.2901 38.5718 38.3422 33.3813 28.8215L32.9361 28.0046L33.6981 27.2023C36.3361 24.4251 37.8007 21.2264 37.7885 18.2687C37.7836 17.1144 37.7091 17.1787 38.7178 17.4677ZM21.3835 19.3565C21.466 19.9738 21.5345 20.5178 21.5357 20.5654C21.5369 20.6128 21.0509 21.0296 20.4555 21.4916C19.8271 21.9792 19.3965 22.2661 19.4288 22.1757C19.5636 21.7984 21.1839 18.1831 21.2074 18.2071C21.2217 18.2219 21.301 18.7391 21.3835 19.3565ZM35.9464 21.3236C35.9464 21.5017 34.9543 23.5503 34.8077 23.675C34.7244 23.7459 34.549 23.5602 33.9786 22.7971L33.2552 21.8294L33.6418 21.1908C33.8544 20.8395 34.1586 20.287 34.3179 19.963L34.6075 19.3738L35.277 20.2762C35.6452 20.7725 35.9464 21.2439 35.9464 21.3236ZM39.6104 20.6096C37.6216 21.3929 37.5436 24.467 39.4903 25.347C39.846 25.5078 39.8582 25.5362 39.9463 26.4053C40.0168 27.1022 39.9052 27.1847 39.2805 26.8974C36.6934 25.708 34.4578 29.1811 36.5497 31.1399C38.4173 32.8886 41.475 30.9321 40.6678 28.5049C40.5479 28.1446 40.5486 28.1132 40.6775 28.0129C40.853 27.8764 40.7983 27.8715 41.4771 28.0836L42.0599 28.2657L42.2363 28.7647C43.2243 31.5604 47.134 30.9366 47.1435 27.9817C47.1524 25.282 43.1562 24.3553 42.3389 26.8675C42.3176 26.9327 42.1568 26.9172 41.7853 26.8142L41.2616 26.669L41.208 26.1557C41.1468 25.5698 41.169 25.5059 41.4599 25.431C41.758 25.3544 42.3187 24.9428 42.5521 24.6293C44.1298 22.5101 42.039 19.6531 39.6104 20.6096ZM23.5138 22.1931C24.0846 22.4444 24.5409 22.661 24.5277 22.6745C24.4922 22.7108 20.524 23.3584 20.3365 23.3584C20.1439 23.3584 22.1392 21.7519 22.3434 21.7424C22.4164 21.739 22.943 21.9418 23.5138 22.1931ZM41.3075 21.9632C42.2642 22.6613 41.7545 24.2776 40.5777 24.2776C39.3056 24.2776 38.8679 22.4584 39.998 21.8681C40.3514 21.6835 40.9873 21.7297 41.3075 21.9632ZM33.0172 23.6576C33.3002 24.0415 33.6288 24.4906 33.7475 24.6558L33.9632 24.956L33.2624 25.7652C32.5971 26.5333 31.423 27.6573 31.2859 27.6573C31.2509 27.6573 30.8964 27.22 30.4981 26.6857L29.7739 25.714L31.0986 24.3448C32.6724 22.7183 32.3972 22.8168 33.0172 23.6576ZM29.5289 27.5356C30.1891 28.4291 30.2367 28.5177 30.1087 28.616C29.4556 29.1174 26.9668 30.5044 26.8949 30.4071C26.8816 30.3892 26.5731 29.973 26.2093 29.4823C25.8455 28.9916 25.5173 28.5485 25.48 28.4975C25.4337 28.4346 25.5811 28.3239 25.941 28.1514C26.5424 27.8631 28.2069 26.8674 28.5046 26.618C28.6135 26.5268 28.7267 26.477 28.7562 26.5072C28.7856 26.5375 29.1334 27.0003 29.5289 27.5356ZM45.3965 26.9542C46.1516 27.5443 46.0209 28.7398 45.1584 29.1307C43.9475 29.6794 42.836 28.1951 43.6842 27.1623C44.1168 26.6355 44.8714 26.5439 45.3965 26.9542ZM38.8764 28.1642C40.2517 29.1232 38.9928 31.2353 37.5793 30.3403C36.5326 29.6775 37.0093 27.9817 38.2423 27.9817C38.4981 27.9817 38.6966 28.0388 38.8764 28.1642ZM32.2448 29.4325C32.5526 30.0117 33.2969 31.1879 33.7164 31.7581L33.9586 32.0873L32.9947 32.9157L32.0308 33.744L31.8882 33.5598C31.5115 33.0732 30.6895 31.7538 30.3367 31.0694L29.9432 30.3062L30.7479 29.744C31.1905 29.4349 31.6228 29.1127 31.7087 29.028C31.9235 28.8161 31.9128 28.808 32.2448 29.4325ZM24.9329 29.9247L25.6578 30.8945L25.2486 31.019C24.7684 31.1651 23.8813 31.3524 23.314 31.4275L22.913 31.4806L22.2659 30.6031C21.4715 29.5259 21.4688 29.6035 22.3068 29.4269C22.6894 29.3463 23.2163 29.2105 23.4775 29.1251C24.1856 28.8937 24.1458 28.8718 24.9329 29.9247ZM18.1605 29.5634C18.5017 29.6303 19.0539 29.6867 19.3875 29.6885L19.9941 29.6921L20.6585 30.5899L21.3228 31.4877L20.9752 31.4311C19.6593 31.2173 18.7371 30.783 17.9483 30.0054C17.6366 29.6982 17.4172 29.4457 17.4608 29.4443C17.5043 29.4429 17.8192 29.4965 18.1605 29.5634ZM16.8182 30.7136C18.3539 32.4319 21.0701 33.1608 24.0183 32.6459C24.4464 32.5712 24.809 32.5227 24.8241 32.5383C24.8565 32.5715 23.1332 36.9183 23.0554 36.9998C23.0262 37.0303 22.7568 36.9474 22.4566 36.8157C22.1563 36.684 21.902 36.5861 21.8915 36.5981C21.8809 36.6101 21.7642 36.8819 21.6321 37.2018L21.3918 37.7836L21.6826 37.905C22.5771 38.2784 22.5674 38.2717 22.4939 38.4656C22.4559 38.5658 22.352 38.8357 22.2628 39.0654L22.1007 39.4831L22.6911 39.7295L23.2816 39.9758L23.3994 39.6872C23.4641 39.5284 23.5171 39.3892 23.5171 39.3778C23.5171 39.3664 23.5701 39.2272 23.6348 39.0684L23.7525 38.7798L24.3373 39.0238L24.922 39.2677L24.6885 39.8371C24.5601 40.1501 24.4754 40.4272 24.5003 40.4528C24.5352 40.4885 25.576 40.9595 25.62 40.9595C25.6253 40.9595 25.7274 40.704 25.847 40.3917C26.0907 39.7554 26.083 39.759 26.6838 39.9951C28.6522 40.7689 30.7358 38.8129 30.0598 36.826C29.992 36.627 29.944 36.4601 29.9529 36.4551C30.6605 36.0637 31.1036 35.6602 31.2926 35.2351C31.373 35.0542 31.417 35.0892 32.328 36.0606C33.668 37.4894 35.3014 38.7973 36.5599 39.4492C37.1183 39.7383 37.0206 40.0895 36.1267 41.0053C30.0764 47.2041 12.8586 38.2563 16.0789 30.5868C16.2938 30.075 16.239 30.0656 16.8182 30.7136ZM29.0269 31.3276C29.1096 31.5171 29.424 32.092 29.7256 32.605C30.5069 33.9341 30.5147 34.488 29.7606 35.0601C29.3029 35.4074 29.0002 35.3549 27.2665 34.6278L25.6723 33.959L26.0324 33.059C26.4678 31.9709 26.4207 32.0258 27.1827 31.7176C27.5225 31.5802 28.0034 31.3604 28.2515 31.2292C28.8362 30.92 28.8497 30.9217 29.0269 31.3276ZM36.92 35.178C37.2574 35.4555 37.5415 35.6997 37.5514 35.7207C37.5772 35.7754 35.7827 37.3095 35.6928 37.3095C35.5026 37.3095 33.9133 35.9083 33.1834 35.0972L32.8616 34.7393L33.8125 33.9229L34.7635 33.1065L35.535 33.8899C35.9594 34.3209 36.5826 34.9004 36.92 35.178ZM14.8829 34.8762C14.9814 35.1661 15.2033 35.6754 15.3761 36.008L15.6903 36.6126L15.3134 37.5694C14.8779 38.6749 14.8754 38.6768 14.6487 38.0598C14.235 36.9329 14.1622 35.6452 14.4556 34.643C14.6027 34.1401 14.6398 34.1603 14.8829 34.8762ZM26.7451 35.8221C28.9109 36.7299 29.2615 37.1523 28.7204 38.2006C28.2755 39.0625 26.2669 38.782 24.2938 37.5825C24.2638 37.5642 24.4266 37.0847 24.6556 36.5169C24.8846 35.9491 25.0951 35.4206 25.1233 35.3425C25.1911 35.1551 25.0657 35.118 26.7451 35.8221ZM39.3056 36.8577C39.6441 37.0553 40.1846 37.3357 40.5067 37.4807C40.8287 37.6257 41.0899 37.7652 41.087 37.7905C41.0811 37.8416 39.6309 39.0955 39.4558 39.2007C39.2726 39.311 36.8964 38.2991 36.8964 38.1109C36.8964 38.0663 38.5804 36.55 38.6839 36.5013C38.6874 36.4997 38.9672 36.66 39.3056 36.8577ZM17.9343 39.3501L18.488 39.8901L18.1399 40.7695C17.9485 41.2532 17.7415 41.7728 17.6798 41.9243L17.5678 42.1997L17.0893 41.7215C16.8262 41.4585 16.4039 40.9796 16.1508 40.6572L15.6907 40.0711L16.1205 39.0062C16.3569 38.4205 16.5503 37.924 16.5503 37.9027C16.5503 37.8816 16.7372 38.077 16.9654 38.3371C17.1937 38.5972 17.6297 39.053 17.9343 39.3501ZM44.3777 38.5025L45.1694 38.569L44.7246 38.8765C43.8842 39.4572 42.5659 39.7695 41.409 39.6617L40.9735 39.6211L41.7841 38.925L42.5947 38.229L43.0903 38.3325C43.363 38.3895 43.9423 38.466 44.3777 38.5025ZM47.2355 41.0967C46.1668 41.647 44.8259 42.1121 43.6064 42.3555C42.9427 42.488 42.6766 42.5741 42.6762 42.6561C42.6737 43.1479 42.861 43.7983 43.005 43.7983C44.0295 43.7983 48.7715 42.1017 48.7715 41.7352C48.7715 41.6785 48.2006 40.715 48.1478 40.6825C48.1207 40.6658 47.7102 40.8522 47.2355 41.0967ZM20.4124 41.3094C20.846 41.5911 21.559 42.0017 21.9968 42.2219C22.9419 42.6972 22.9093 42.5453 22.3593 43.9125C21.8458 45.189 21.9731 45.1331 20.9046 44.5514C20.39 44.2713 18.7864 43.2565 18.6238 43.1082C18.5807 43.0688 19.5076 40.7972 19.5669 40.7972C19.5982 40.7972 19.9787 41.0277 20.4124 41.3094ZM40.7162 42.7222L40.2214 42.7516V43.3967V44.0417L40.7954 44.0405C41.5386 44.0388 41.5396 44.0379 41.49 43.3124C41.4437 42.6343 41.4977 42.6755 40.7162 42.7222ZM35.5226 43.4504C35.058 44.3898 34.2333 45.1737 33.1411 45.7139C32.4432 46.0591 32.4514 46.0858 32.9068 44.9459L33.2929 43.9795L33.8873 43.803C34.2143 43.7059 34.749 43.4897 35.0756 43.3225C35.7862 42.9588 35.7683 42.9537 35.5226 43.4504ZM25.3023 43.5816C25.8226 43.7365 26.569 43.9272 26.9609 44.0053C27.3528 44.0834 27.6844 44.1561 27.6978 44.1668C27.8221 44.2662 26.7896 46.475 26.6189 46.475C26.0893 46.475 23.1213 45.6593 23.1213 45.5137C23.1213 45.4485 23.9584 43.3519 24.0356 43.2242C24.0633 43.1781 24.134 43.1782 24.2185 43.2245C24.2943 43.266 24.7819 43.4267 25.3023 43.5816ZM31.7126 44.4402C31.6879 44.511 31.501 44.9939 31.2973 45.5134L30.9269 46.458L30.6064 46.5088C30.4302 46.5368 29.7967 46.5825 29.1989 46.6105L28.1119 46.6612L28.5319 45.6151C28.7629 45.0397 28.9716 44.5141 28.9956 44.4472C29.032 44.3459 29.2668 44.3244 30.3984 44.3185C31.6073 44.3123 31.7526 44.3257 31.7126 44.4402Z" fill="#F6C13D"/>
</svg>
