<svg width="17" height="17" viewBox="0 0 17 17" fill="none" xmlns="http://www.w3.org/2000/svg">
<path d="M3.69961 7.1C1.79961 7.1 0.0996094 5.5 0.0996094 3.5C0.0996094 1.5 1.79961 0 3.69961 0C5.59961 0 7.19961 1.6 7.19961 3.5C7.19961 5.5 5.59961 7.1 3.69961 7.1Z" fill="#C4C4C4"/>
<path d="M3.69961 7.1C1.79961 7.1 0.0996094 5.5 0.0996094 3.5C0.0996094 1.5 1.79961 0 3.69961 0C5.59961 0 7.19961 1.6 7.19961 3.5C7.19961 5.5 5.59961 7.1 3.69961 7.1Z" fill="black" fill-opacity="0.2"/>
<path d="M5.3 16.6992H2C1 16.6992 0 15.8992 0 14.8992V11.5992C0 10.4992 0.9 9.69922 2 9.69922H5.3C6.3 9.69922 7.2 10.4992 7.2 11.5992V14.8992C7.2 15.7992 6.3 16.6992 5.3 16.6992Z" fill="#C4C4C4"/>
<path d="M5.3 16.6992H2C1 16.6992 0 15.8992 0 14.8992V11.5992C0 10.4992 0.9 9.69922 2 9.69922H5.3C6.3 9.69922 7.2 10.4992 7.2 11.5992V14.8992C7.2 15.7992 6.3 16.6992 5.3 16.6992Z" fill="black" fill-opacity="0.2"/>
<path d="M14.9998 16.7H11.6998C10.6998 16.7 9.7998 15.9 9.7998 14.8V1.9C9.7998 0.9 10.5998 0 11.6998 0H14.9998C15.9998 0 16.8998 0.8 16.8998 1.9V14.8C16.8998 15.8 15.9998 16.7 14.9998 16.7Z" fill="#C4C4C4"/>
<path d="M14.9998 16.7H11.6998C10.6998 16.7 9.7998 15.9 9.7998 14.8V1.9C9.7998 0.9 10.5998 0 11.6998 0H14.9998C15.9998 0 16.8998 0.8 16.8998 1.9V14.8C16.8998 15.8 15.9998 16.7 14.9998 16.7Z" fill="black" fill-opacity="0.2"/>
</svg>
