<svg width="64" height="57" viewBox="0 0 64 57" fill="none" xmlns="http://www.w3.org/2000/svg">
<rect width="64" height="57" rx="10" fill="white"/>
<path d="M44.4764 19.1437H41.1545C41.3221 18.6713 41.4288 18.1532 41.4288 17.6198C41.4305 16.6367 41.1147 15.6793 40.5285 14.8901C39.9423 14.1008 39.117 13.5219 38.1753 13.2394C37.2337 12.9569 36.226 12.9859 35.3021 13.3222C34.3783 13.6584 33.5876 14.2839 33.0479 15.1056L32.2859 16.1265L31.524 15.0903C30.7012 13.8713 29.3145 13.0484 27.7145 13.0484C25.185 13.0484 23.1431 15.0903 23.1431 17.6198C23.1431 18.1532 23.2498 18.6713 23.4174 19.1437H20.0955C18.404 19.1437 17.0631 20.4998 17.0631 22.1913L17.0479 38.9532C17.0479 40.6446 18.404 42.0008 20.0955 42.0008H44.4764C46.1679 42.0008 47.524 40.6446 47.524 38.9532V22.1913C47.524 20.4998 46.1679 19.1437 44.4764 19.1437ZM36.8574 16.096C37.6955 16.096 38.3812 16.7818 38.3812 17.6198C38.3812 18.4579 37.6955 19.1437 36.8574 19.1437C36.0193 19.1437 35.3336 18.4579 35.3336 17.6198C35.3336 16.7818 36.0193 16.096 36.8574 16.096ZM27.7145 16.096C28.5526 16.096 29.2383 16.7818 29.2383 17.6198C29.2383 18.4579 28.5526 19.1437 27.7145 19.1437C26.8764 19.1437 26.1907 18.4579 26.1907 17.6198C26.1907 16.7818 26.8764 16.096 27.7145 16.096ZM44.4764 38.9532H20.0955V35.9056H44.4764V38.9532ZM44.4764 31.3341H20.0955V22.1913H27.8364L24.6669 26.5037L27.1355 28.2865L30.7621 23.3494L32.2859 21.277L33.8098 23.3494L37.4364 28.2865L39.905 26.5037L36.7355 22.1913H44.4764V31.3341Z" fill="#2164D5"/>
</svg>
