<svg width="10" height="10" viewBox="0 0 10 10" fill="none" xmlns="http://www.w3.org/2000/svg">
<circle cx="5" cy="5" r="5" fill="#07AF4A"/>
<mask id="path-2-inside-1_257_90" fill="white">
<path d="M4.58328 5.6613L6.49828 3.74609L6.79307 4.04068L4.58328 6.25047L3.25745 4.92464L3.55203 4.63005L4.58328 5.6613Z"/>
</mask>
<path d="M4.58328 5.6613L6.49828 3.74609L6.79307 4.04068L4.58328 6.25047L3.25745 4.92464L3.55203 4.63005L4.58328 5.6613Z" fill="white"/>
<path d="M4.58328 5.6613L3.16907 7.07552L4.58336 8.48981L5.99757 7.07544L4.58328 5.6613ZM6.49828 3.74609L7.91199 2.33138L6.4977 0.918089L5.08399 2.33196L6.49828 3.74609ZM6.79307 4.04068L8.20728 5.45489L9.622 4.04018L8.20678 2.62596L6.79307 4.04068ZM4.58328 6.25047L3.16907 7.66468L4.58328 9.0789L5.99749 7.66468L4.58328 6.25047ZM3.25745 4.92464L1.84323 3.51042L0.42902 4.92464L1.84323 6.33885L3.25745 4.92464ZM3.55203 4.63005L4.96624 3.21584L3.55203 1.80162L2.13782 3.21584L3.55203 4.63005ZM5.99757 7.07544L7.91257 5.16023L5.08399 2.33196L3.16899 4.24717L5.99757 7.07544ZM5.08456 5.16081L5.37936 5.45539L8.20678 2.62596L7.91199 2.33138L5.08456 5.16081ZM5.37886 2.62646L3.16907 4.83626L5.99749 7.66468L8.20728 5.45489L5.37886 2.62646ZM5.99749 4.83626L4.67166 3.51042L1.84323 6.33885L3.16907 7.66468L5.99749 4.83626ZM4.67166 6.33885L4.96624 6.04427L2.13782 3.21584L1.84323 3.51042L4.67166 6.33885ZM2.13782 6.04427L3.16907 7.07552L5.99749 4.24709L4.96624 3.21584L2.13782 6.04427Z" fill="white" mask="url(#path-2-inside-1_257_90)"/>
</svg>
