<svg width="10" height="10" viewBox="0 0 10 10" fill="none" xmlns="http://www.w3.org/2000/svg">
<path d="M0 9H10V10H0V9ZM1 5H2V8.5H1V5ZM3.5 5H4.5V8.5H3.5V5ZM5.5 5H6.5V8.5H5.5V5ZM8 5H9V8.5H8V5ZM0 2.5L5 0L10 2.5V4.5H0V2.5ZM1 3.118V3.5H9V3.118L5 1.118L1 3.118ZM5 3C4.86739 3 4.74021 2.94732 4.64645 2.85355C4.55268 2.75979 4.5 2.63261 4.5 2.5C4.5 2.36739 4.55268 2.24021 4.64645 2.14645C4.74021 2.05268 4.86739 2 5 2C5.13261 2 5.25979 2.05268 5.35355 2.14645C5.44732 2.24021 5.5 2.36739 5.5 2.5C5.5 2.63261 5.44732 2.75979 5.35355 2.85355C5.25979 2.94732 5.13261 3 5 3Z" fill="#323232"/>
</svg>
