<svg width="187" height="62" viewBox="0 0 187 62" fill="none" xmlns="http://www.w3.org/2000/svg">
<g clip-path="url(#clip0_405_28)">
<path fill-rule="evenodd" clip-rule="evenodd" d="M75.0088 45.9859C73.9107 45.9881 72.8255 45.7491 71.8303 45.2859C70.8351 44.8227 69.9542 44.1467 69.2502 43.3057C68.1379 41.9784 67.5319 40.3012 67.5396 38.5709C67.5396 37.9892 67.7712 37.4312 68.1835 37.0198C68.5957 36.6084 69.1548 36.3773 69.7378 36.3773C70.3208 36.3773 70.8799 36.6084 71.2921 37.0198C71.7044 37.4312 71.936 37.9892 71.936 38.5709C71.9396 39.2813 72.1883 39.9686 72.6403 40.5174C73.0389 41.0078 73.5804 41.3623 74.1899 41.5319C74.7993 41.7015 75.4466 41.6777 76.0419 41.4638C76.6372 41.25 77.1511 40.8566 77.5124 40.3383C77.8737 39.82 78.0645 39.2023 78.0584 38.5709V21.7482C78.0624 21.167 78.295 20.6105 78.7062 20.1988C79.1173 19.7871 79.6741 19.553 80.2565 19.5469C80.5462 19.5459 80.8331 19.6022 81.1008 19.7125C81.3684 19.8229 81.6115 19.9851 81.8159 20.1898C82.0204 20.3945 82.1821 20.6377 82.2917 20.9052C82.4014 21.1727 82.4568 21.4592 82.4547 21.7482V38.5709C82.4466 40.5377 81.659 42.4213 80.2639 43.8106C78.8688 45.1998 76.9796 45.9818 75.0088 45.9859Z" fill="#0895C5"/>
<path fill-rule="evenodd" clip-rule="evenodd" d="M99.7232 34.843C100.273 34.843 100.801 34.6249 101.19 34.2367C101.579 33.8485 101.798 33.322 101.798 32.773C101.798 32.224 101.579 31.6974 101.19 31.3092C100.801 30.921 100.273 30.7029 99.7232 30.7029H89.785V23.6278H99.7619C100.048 23.6452 100.334 23.604 100.603 23.5068C100.872 23.4097 101.118 23.2586 101.327 23.0629C101.535 22.8672 101.701 22.631 101.815 22.3688C101.928 22.1066 101.987 21.8241 101.987 21.5385C101.987 21.2529 101.928 20.9703 101.815 20.7082C101.701 20.446 101.535 20.2098 101.327 20.0141C101.118 19.8184 100.872 19.6673 100.603 19.5702C100.334 19.473 100.048 19.4318 99.7619 19.4492H87.6874C87.4147 19.4502 87.1449 19.505 86.8935 19.6106C86.6422 19.7161 86.4142 19.8703 86.2229 20.0641C86.0315 20.258 85.8804 20.4877 85.7784 20.7401C85.6764 20.9925 85.6255 21.2625 85.6286 21.5346V43.8336C85.6254 44.1043 85.6766 44.3729 85.7789 44.6235C85.8813 44.8742 86.0328 45.1019 86.2246 45.2933C86.4165 45.4848 86.6447 45.636 86.8959 45.7381C87.1471 45.8403 87.4162 45.8913 87.6874 45.8882H99.7619C100.035 45.8913 100.306 45.8405 100.559 45.7388C100.813 45.6371 101.043 45.4865 101.238 45.2956C101.433 45.1047 101.588 44.8773 101.695 44.6264C101.802 44.3755 101.857 44.1061 101.859 43.8336C101.863 43.5532 101.809 43.2749 101.703 43.0153C101.597 42.7557 101.439 42.5199 101.24 42.322C101.041 42.124 100.804 41.9678 100.544 41.8626C100.283 41.7575 100.004 41.7054 99.7232 41.7095H89.785V34.843H99.7232Z" fill="#0895C5"/>
<path fill-rule="evenodd" clip-rule="evenodd" d="M116.202 31.1491C115.659 31.0233 115.108 30.9381 114.553 30.8942V24.0972C115.681 24.335 116.74 24.8264 117.649 25.5338C118.086 25.8562 118.631 25.9962 119.17 25.9242C119.708 25.8521 120.197 25.5736 120.533 25.1477C120.87 24.7218 121.026 24.182 120.971 23.6428C120.915 23.1035 120.651 22.6071 120.234 22.2589C118.561 21.0101 116.594 20.2122 114.522 19.9417V16.2188H111.318V19.8644H111.124C109.524 20.0739 108.017 20.7367 106.782 21.7743C105.548 22.812 104.637 24.181 104.158 25.7192C103.81 27.1625 103.915 28.6778 104.459 30.0595C105.004 31.4411 105.96 32.6224 107.2 33.4431C108.429 34.2404 109.84 34.7135 111.302 34.818V41.5146C109.867 41.1685 108.572 40.3954 107.587 39.2979C107.412 39.0919 107.198 38.9223 106.958 38.7988C106.717 38.6753 106.455 38.6003 106.185 38.578C105.916 38.5558 105.645 38.5868 105.387 38.6692C105.129 38.7516 104.891 38.8839 104.684 39.0584C104.267 39.4173 104.008 39.9254 103.964 40.4731C103.919 41.0207 104.091 41.5641 104.444 41.9858C106.247 44.0201 108.717 45.3479 111.411 45.7319V49.0995H114.553V45.8246L114.994 45.7782C118.307 45.2916 122.007 42.9204 122.254 38.8267C122.313 37.0319 121.736 35.2739 120.625 33.8614C119.514 32.4489 117.939 31.4722 116.178 31.1028L116.202 31.1491ZM132.874 16.2188H136.086V19.9031C138.155 20.1735 140.12 20.9715 141.79 22.2202C142.207 22.5685 142.471 23.0649 142.527 23.6041C142.583 24.1434 142.426 24.6832 142.09 25.1091C141.753 25.535 141.264 25.8135 140.726 25.8855C140.187 25.9576 139.642 25.8176 139.205 25.4952C138.296 24.7868 137.237 24.2954 136.109 24.0585V30.8942C136.654 30.9373 137.194 31.0199 137.727 31.1414C139.488 31.5108 141.062 32.4876 142.173 33.9001C143.284 35.3126 143.861 37.0705 143.803 38.8653C143.555 42.9358 139.855 45.3071 136.543 45.8169C136.399 45.8399 136.254 45.8554 136.109 45.8632V49.1381H132.897V45.7319C130.203 45.3479 127.734 44.0201 125.931 41.9858C125.577 41.5639 125.404 41.0195 125.451 40.4712C125.497 39.9229 125.759 39.415 126.179 39.0584C126.384 38.8841 126.622 38.752 126.879 38.6697C127.136 38.5874 127.407 38.5564 127.676 38.5787C127.945 38.6009 128.207 38.6759 128.446 38.7993C128.686 38.9227 128.899 39.0921 129.073 39.2979C130.086 40.4172 131.422 41.1946 132.897 41.5223V34.8257C131.435 34.7212 130.023 34.2481 128.795 33.4508C127.557 32.6286 126.601 31.4471 126.057 30.0659C125.513 28.6847 125.407 27.1703 125.753 25.7269C126.233 24.1892 127.144 22.8207 128.378 21.7832C129.613 20.7456 131.119 20.0825 132.719 19.8722H132.912V16.2188H132.874ZM136.086 35.0497V41.6382C137.75 41.3524 139.522 40.3174 139.623 38.595C139.631 37.7849 139.352 36.9982 138.835 36.3736C138.318 35.749 137.596 35.3266 136.798 35.181C136.563 35.124 136.325 35.0802 136.086 35.0497ZM132.874 30.6471V24.0817C132.158 24.2324 131.495 24.5689 130.951 25.0571C130.408 25.5453 130.003 26.168 129.778 26.8623C129.665 27.4698 129.738 28.097 129.986 28.6629C130.235 29.2288 130.647 29.7074 131.171 30.0369C131.696 30.3689 132.288 30.58 132.905 30.6548L132.874 30.6471ZM111.372 30.6471C110.755 30.5722 110.163 30.3611 109.638 30.0291C109.114 29.6996 108.702 29.221 108.453 28.6552C108.205 28.0893 108.132 27.4621 108.245 26.8546C108.47 26.1603 108.875 25.5376 109.419 25.0494C109.962 24.5611 110.625 24.2247 111.341 24.074V30.6471H111.372ZM114.576 35.0497C114.818 35.0808 115.059 35.1247 115.296 35.181C116.099 35.3272 116.823 35.753 117.34 36.3825C117.858 37.0119 118.134 37.8042 118.121 38.6182C118.021 40.3406 116.248 41.3756 114.576 41.6614V35.0497Z" fill="#333333"/>
<path fill-rule="evenodd" clip-rule="evenodd" d="M150.064 45.8493C149.787 45.8483 149.512 45.7925 149.256 45.685C149 45.5775 148.768 45.4205 148.573 45.2231C148.378 45.0257 148.224 44.7917 148.12 44.5346C148.016 44.2775 147.964 44.0025 147.967 43.7253V21.5344C147.967 20.9752 148.19 20.4388 148.586 20.0434C148.982 19.6479 149.52 19.4258 150.08 19.4258C150.64 19.4258 151.178 19.6479 151.574 20.0434C151.97 20.4388 152.193 20.9752 152.193 21.5344V43.7253C152.195 44.0048 152.141 44.2819 152.035 44.5405C151.929 44.7992 151.772 45.0342 151.574 45.2318C151.376 45.4295 151.141 45.5858 150.881 45.6918C150.622 45.7979 150.345 45.8514 150.064 45.8493Z" fill="#0895C5"/>
<path fill-rule="evenodd" clip-rule="evenodd" d="M170.522 34.843C171.072 34.843 171.599 34.6249 171.988 34.2367C172.377 33.8485 172.596 33.322 172.596 32.773C172.596 32.224 172.377 31.6975 171.988 31.3093C171.599 30.9211 171.072 30.703 170.522 30.703H160.537V23.6279H170.522C171.055 23.5955 171.556 23.3613 171.922 22.973C172.288 22.5847 172.492 22.0717 172.492 21.5385C172.492 21.0054 172.288 20.4923 171.922 20.1041C171.556 19.7158 171.055 19.4816 170.522 19.4492H158.439C158.167 19.4502 157.897 19.5051 157.645 19.6106C157.394 19.7162 157.166 19.8703 156.975 20.0642C156.783 20.258 156.632 20.4878 156.53 20.7401C156.428 20.9925 156.377 21.2626 156.381 21.5347V43.8337C156.377 44.1043 156.429 44.3729 156.531 44.6236C156.633 44.8743 156.785 45.102 156.977 45.2934C157.168 45.4848 157.397 45.636 157.648 45.7382C157.899 45.8403 158.168 45.8913 158.439 45.8882H170.522C170.794 45.8913 171.065 45.8405 171.318 45.7387C171.571 45.6369 171.801 45.4862 171.995 45.2952C172.189 45.1042 172.344 44.8767 172.45 44.6259C172.555 44.375 172.61 44.1058 172.611 43.8337C172.609 43.2805 172.389 42.7504 171.998 42.3585C171.606 41.9666 171.076 41.7446 170.522 41.7405H160.537V34.843H170.522Z" fill="#0895C5"/>
<path fill-rule="evenodd" clip-rule="evenodd" d="M179.833 20.3616H178.145V25.3976H177.17V20.3616H175.483V19.5352H179.833V20.3616Z" fill="#333333"/>
<path fill-rule="evenodd" clip-rule="evenodd" d="M187 25.3976H186.032V21.6283C186.032 21.3194 186.032 20.9332 186.094 20.4852C186.054 20.6717 185.999 20.855 185.932 21.0336L184.182 25.4208H183.509L181.752 21.0722C181.681 20.8817 181.626 20.6853 181.59 20.4852C181.59 20.7169 181.628 21.1031 181.628 21.6361V25.4208H180.723V19.5352H182.093L183.641 23.4435C183.73 23.6605 183.808 23.8823 183.873 24.1077C183.973 23.7988 184.059 23.5748 184.121 23.4203L185.669 19.5583H186.992L187 25.3976Z" fill="#333333"/>
<path d="M31.1151 61.9928C48.2695 61.9629 62.1516 48.0613 62.1217 30.9426C62.0917 13.8239 48.1611 -0.0292887 31.0066 0.000589047C13.8522 0.0304668 -0.0299279 13.9321 1.22258e-05 31.0508C0.0299524 48.1695 13.9606 62.0227 31.1151 61.9928Z" fill="url(#paint0_linear_405_28)"/>
<path fill-rule="evenodd" clip-rule="evenodd" d="M19.4665 33.5364L16.5098 35.2356V35.6373C16.5098 39.4885 18.0428 43.182 20.7717 45.9052C23.5007 48.6284 27.2018 50.1583 31.0611 50.1583C34.9203 50.1583 38.6215 48.6284 41.3504 45.9052C44.0793 43.182 45.6124 39.4885 45.6124 35.6373V11.8398H16.5098V24.0359H25.2019V19.9036H36.7423V35.6373C36.688 37.1037 36.0661 38.4919 35.0074 39.5102C33.9486 40.5285 32.5354 41.0974 31.065 41.0974C29.5945 41.0974 28.1813 40.5285 27.1226 39.5102C26.0638 38.4919 25.4419 37.1037 25.3876 35.6373V30.1224L22.4464 31.8294L19.482 33.5364H19.4665ZM19.4665 21.0854V14.7904H42.6867V35.645C42.629 38.5433 41.4847 41.3147 39.4795 43.4122C37.4744 45.5097 34.7542 46.7809 31.8558 46.9749C28.9574 47.1689 26.0914 46.2716 23.8236 44.46C21.5557 42.6485 20.0508 40.0544 19.6058 37.1898L22.4464 35.5678V35.6373C22.5136 37.8777 23.4528 40.004 25.0646 41.565C26.6765 43.1261 28.8343 43.9992 31.0804 43.9992C33.3266 43.9992 35.4844 43.1261 37.0963 41.565C38.7081 40.004 39.6473 37.8777 39.7145 35.6373V16.9917H22.2452V21.0854H19.4665Z" fill="white"/>
</g>
<defs>
<linearGradient id="paint0_linear_405_28" x1="12.5543" y1="18.4916" x2="49.5264" y2="43.5811" gradientUnits="userSpaceOnUse">
<stop stop-color="#0092C6"/>
<stop offset="1" stop-color="#185F96"/>
</linearGradient>
<clipPath id="clip0_405_28">
<rect width="187" height="62" fill="white"/>
</clipPath>
</defs>
</svg>
