<svg width="25" height="24" viewBox="0 0 25 24" fill="none" xmlns="http://www.w3.org/2000/svg">
<path d="M17.4116 8L16.0016 9.41L17.5816 11H9.41162V13H17.5816L16.0016 14.58L17.4116 16L21.4116 12L17.4116 8ZM5.41162 5H12.4116V3H5.41162C4.31162 3 3.41162 3.9 3.41162 5V19C3.41162 20.1 4.31162 21 5.41162 21H12.4116V19H5.41162V5Z" fill="#C4C4C4"/>
<path d="M17.4116 8L16.0016 9.41L17.5816 11H9.41162V13H17.5816L16.0016 14.58L17.4116 16L21.4116 12L17.4116 8ZM5.41162 5H12.4116V3H5.41162C4.31162 3 3.41162 3.9 3.41162 5V19C3.41162 20.1 4.31162 21 5.41162 21H12.4116V19H5.41162V5Z" fill="black" fill-opacity="0.2"/>
</svg>
