<svg width="12" height="12" viewBox="0 0 12 12" fill="none" xmlns="http://www.w3.org/2000/svg">
<path d="M0.750005 0.75H11.25C11.4047 0.75 11.5531 0.811458 11.6625 0.920854C11.7719 1.03025 11.8333 1.17862 11.8333 1.33333V10.6667C11.8333 10.8214 11.7719 10.9697 11.6625 11.0791C11.5531 11.1885 11.4047 11.25 11.25 11.25H0.750005C0.595295 11.25 0.446922 11.1885 0.337526 11.0791C0.22813 10.9697 0.166672 10.8214 0.166672 10.6667V1.33333C0.166672 1.17862 0.22813 1.03025 0.337526 0.920854C0.446922 0.811458 0.595295 0.75 0.750005 0.75ZM10.6667 3.22217L6.04201 7.36383L1.33334 3.20933V10.0833H10.6667V3.22217ZM1.63142 1.91667L6.03559 5.80283L10.3762 1.91667H1.63142Z" fill="#016CBA"/>
</svg>
