<svg width="30" height="30" viewBox="0 0 30 30" fill="none" xmlns="http://www.w3.org/2000/svg">
<circle cx="15" cy="15" r="15" fill="#50AF95"/>
<circle cx="15" cy="15" r="11.5" stroke="white"/>
<g clip-path="url(#clip0_200_1876)">
<path d="M15.6021 15H16.9497V10.5001C16.9497 10.0859 17.2849 9.75005 17.6997 9.75005C18.1146 9.75005 18.4497 10.0859 18.4497 10.5001V15H19.1997C19.6146 15 19.9497 15.3352 19.9497 15.75C19.9497 16.1649 19.6146 16.5 19.1997 16.5H18.4497V19.5C18.4497 19.8305 18.2341 20.1211 17.9177 20.2172C17.6013 20.3133 17.2591 20.1915 17.0763 19.9172L14.7981 16.5H12.4497V19.5C12.4497 19.9149 12.1146 20.25 11.6997 20.25C11.2856 20.25 10.9497 19.9149 10.9497 19.5V16.5H10.1997C9.78557 16.5 9.44971 16.1649 9.44971 15.75C9.44971 15.3352 9.78557 15 10.1997 15H10.9497V10.5001C10.9497 10.1696 11.166 9.87802 11.4824 9.78216C11.7981 9.68653 12.1403 9.80911 12.3231 10.084L15.6021 15ZM16.6005 16.5L16.9497 17.0227V16.5H16.6005ZM13.7974 15L12.4497 12.9774V15H13.7974Z" fill="#F8F9FB"/>
<rect x="9.44971" y="12.5" width="10.5" height="1.5" rx="0.75" fill="#F8F9FB"/>
</g>
<defs>
<clipPath id="clip0_200_1876">
<rect width="10.5" height="12" fill="white" transform="translate(9.44971 9)"/>
</clipPath>
</defs>
</svg>
