<svg width="13" height="12" viewBox="0 0 13 12" fill="none" xmlns="http://www.w3.org/2000/svg">
<path d="M6.78225 1.33317C6.65009 1.70792 6.58282 2.10247 6.58333 2.49984H1.91667V10.6665H10.0833V5.99984C10.4807 6.00035 10.8753 5.93308 11.25 5.80092V11.2498C11.25 11.4045 11.1885 11.5529 11.0791 11.6623C10.9697 11.7717 10.8214 11.8332 10.6667 11.8332H1.33333C1.17862 11.8332 1.03025 11.7717 0.920854 11.6623C0.811458 11.5529 0.75 11.4045 0.75 11.2498V1.9165C0.75 1.76179 0.811458 1.61342 0.920854 1.50403C1.03025 1.39463 1.17862 1.33317 1.33333 1.33317H6.78225ZM10.0833 3.6665C10.3928 3.6665 10.6895 3.54359 10.9083 3.3248C11.1271 3.106 11.25 2.80926 11.25 2.49984C11.25 2.19042 11.1271 1.89367 10.9083 1.67488C10.6895 1.45609 10.3928 1.33317 10.0833 1.33317C9.77391 1.33317 9.47717 1.45609 9.25838 1.67488C9.03958 1.89367 8.91667 2.19042 8.91667 2.49984C8.91667 2.80926 9.03958 3.106 9.25838 3.3248C9.47717 3.54359 9.77391 3.6665 10.0833 3.6665ZM10.0833 4.83317C9.46449 4.83317 8.871 4.58734 8.43342 4.14975C7.99583 3.71217 7.75 3.11868 7.75 2.49984C7.75 1.881 7.99583 1.28751 8.43342 0.849921C8.871 0.412337 9.46449 0.166504 10.0833 0.166504C10.7022 0.166504 11.2957 0.412337 11.7332 0.849921C12.1708 1.28751 12.4167 1.881 12.4167 2.49984C12.4167 3.11868 12.1708 3.71217 11.7332 4.14975C11.2957 4.58734 10.7022 4.83317 10.0833 4.83317Z" fill="#016CBA"/>
</svg>
