<svg width="17" height="16" viewBox="0 0 17 16" fill="none" xmlns="http://www.w3.org/2000/svg">
<g clip-path="url(#clip0_200_1919)">
<path d="M10.6455 15.3509V0.680251C10.6455 0.334951 10.9167 0.0545511 11.2608 0.0337515C11.4877 -0.0389481 11.7432 0.0103512 11.923 0.189551L16.8088 5.05545C17.0643 5.30995 17.0643 5.72025 16.8088 5.97465C16.5533 6.22914 16.1414 6.22914 15.8859 5.97465L11.9491 2.05385V15.3509C11.9491 15.7092 11.6571 16 11.2973 16C10.9375 16 10.6455 15.7092 10.6455 15.3509Z" fill="#606470"/>
<path d="M7.35213 0.646709V15.3173C7.35213 15.6626 7.08099 15.943 6.73685 15.9638C6.51003 16.0365 6.25453 15.9872 6.07463 15.808L1.18886 10.9421C1.06111 10.8148 0.998535 10.6487 0.998535 10.4825C0.998535 10.3163 1.06111 10.1501 1.18886 10.0229C1.44436 9.76842 1.85628 9.76842 2.11178 10.0229L6.04856 13.9463V0.64931C6.04856 0.29101 6.34056 0.000209808 6.70035 0.000209808C7.06013 0.000209808 7.35213 0.288409 7.35213 0.646709Z" fill="#606470"/>
</g>
<defs>
<clipPath id="clip0_200_1919">
<rect width="17" height="16" fill="white" transform="matrix(1 0 0 -1 0 16)"/>
</clipPath>
</defs>
</svg>
