<svg width="20" height="23" viewBox="0 0 20 23" fill="none" xmlns="http://www.w3.org/2000/svg">
<g clip-path="url(#clip0_338_19728)">
<path d="M0.811425 10.0647H19.1496C19.5813 10.0647 19.9319 9.72579 19.9578 9.29561C20.0486 9.01209 19.987 8.69271 19.7631 8.46785L13.6806 2.36062C13.3625 2.04125 12.8497 2.04125 12.5316 2.36062C12.2136 2.68 12.2136 3.19491 12.5316 3.51429L17.4326 8.43525H0.811425C0.363519 8.43525 0 8.80025 0 9.24999C0 9.69971 0.363519 10.0647 0.811425 10.0647Z" fill="#606470"/>
<path d="M19.1887 14.1836H0.850485C0.418806 14.1836 0.0682707 14.5225 0.0423052 14.9527C-0.0485744 15.2362 0.0130938 15.5556 0.237047 15.7805L6.31948 21.8877C6.47852 22.0473 6.68625 22.1256 6.89397 22.1256C7.1017 22.1256 7.30942 22.0473 7.46847 21.8877C7.78655 21.5683 7.78655 21.0533 7.46847 20.734L2.56421 15.8131H19.1855C19.6334 15.8131 19.9969 15.4481 19.9969 14.9983C19.9969 14.5486 19.6366 14.1836 19.1887 14.1836Z" fill="#606470"/>
</g>
<defs>
<clipPath id="clip0_338_19728">
<rect width="20" height="21.25" fill="white" transform="translate(0 0.875)"/>
</clipPath>
</defs>
</svg>
