<svg width="17" height="16" viewBox="0 0 17 16" fill="none" xmlns="http://www.w3.org/2000/svg">
<g clip-path="url(#clip0_200_1923)">
<path d="M10.6455 0.64914V15.3197C10.6455 15.665 10.9167 15.9454 11.2608 15.9662C11.4877 16.0389 11.7432 15.9896 11.923 15.8104L16.8088 10.9445C17.0643 10.69 17.0643 10.2797 16.8088 10.0253C16.5533 9.77086 16.1414 9.77086 15.8859 10.0253L11.9491 13.9461V0.64914C11.9491 0.290815 11.6571 1e-08 11.2973 0C10.9375 -2e-08 10.6455 0.290815 10.6455 0.64914Z" fill="#606470"/>
<path d="M7.35213 15.3533V0.682731C7.35213 0.337389 7.08099 0.0569604 6.73685 0.0361879C6.51003 -0.0365158 6.25453 0.0128188 6.07463 0.191981L1.18886 5.05794C1.06111 5.18517 0.998535 5.35135 0.998535 5.51753C0.998535 5.68371 1.06111 5.84989 1.18886 5.97712C1.44436 6.23158 1.85628 6.23158 2.11178 5.97712L6.04856 2.05372V15.3507C6.04856 15.709 6.34056 15.9998 6.70035 15.9998C7.06013 15.9998 7.35213 15.7116 7.35213 15.3533Z" fill="#606470"/>
</g>
<defs>
<clipPath id="clip0_200_1923">
<rect width="17" height="16" fill="white"/>
</clipPath>
</defs>
</svg>
