<svg width="24" height="24" viewBox="0 0 24 24" fill="none" xmlns="http://www.w3.org/2000/svg">
<path d="M19.1735 20H4.82648C3.82192 20 3 19.0994 3 17.9987V7.00133C3 5.9006 3.82192 5 4.82648 5H19.1735C20.1781 5 21 5.9006 21 7.00133V17.9987C21 19.0994 20.1872 20 19.1735 20Z" fill="#C4C4C4"/>
<path d="M19.1735 20H4.82648C3.82192 20 3 19.0994 3 17.9987V7.00133C3 5.9006 3.82192 5 4.82648 5H19.1735C20.1781 5 21 5.9006 21 7.00133V17.9987C21 19.0994 20.1872 20 19.1735 20Z" fill="black" fill-opacity="0.2"/>
<path d="M19.1735 20H4.82648C3.82192 20 3 19.0994 3 17.9987V7.00133C3 5.9006 3.82192 5 4.82648 5H19.1735C20.1781 5 21 5.9006 21 7.00133V17.9987C21 19.0994 20.1872 20 19.1735 20Z" stroke="#C4C4C4" stroke-width="1.3" stroke-miterlimit="10" stroke-linecap="round" stroke-linejoin="round"/>
<path d="M19.1735 20H4.82648C3.82192 20 3 19.0994 3 17.9987V7.00133C3 5.9006 3.82192 5 4.82648 5H19.1735C20.1781 5 21 5.9006 21 7.00133V17.9987C21 19.0994 20.1872 20 19.1735 20Z" stroke="black" stroke-opacity="0.2" stroke-width="1.3" stroke-miterlimit="10" stroke-linecap="round" stroke-linejoin="round"/>
<path d="M7.14014 7V3" stroke="black" stroke-opacity="0.2" stroke-width="1.3" stroke-miterlimit="10" stroke-linecap="round" stroke-linejoin="round"/>
<path d="M7.14014 7V3" stroke="#C4C4C4" stroke-width="1.3" stroke-miterlimit="10" stroke-linecap="round" stroke-linejoin="round"/>
<path d="M16.5703 7V3" stroke="black" stroke-opacity="0.2" stroke-width="1.3" stroke-miterlimit="10" stroke-linecap="round" stroke-linejoin="round"/>
<path d="M16.5703 7V3" stroke="#C4C4C4" stroke-width="1.3" stroke-miterlimit="10" stroke-linecap="round" stroke-linejoin="round"/>
<rect x="7.80005" y="12" width="1.3" height="1.3" fill="white"/>
<rect x="11.8" y="12" width="1.3" height="1.3" fill="white"/>
<rect x="15.8" y="12" width="1.3" height="1.3" fill="white"/>
<rect x="7.80005" y="15" width="1.3" height="1.3" fill="white"/>
<rect x="11.8" y="15" width="1.3" height="1.3" fill="white"/>
<rect x="15.8" y="15" width="1.3" height="1.3" fill="white"/>
<path d="M2 9L22 9" stroke="white" stroke-width="1.3" stroke-miterlimit="10" stroke-linecap="round" stroke-linejoin="round"/>
</svg>
