<svg width="10" height="10" viewBox="0 0 10 10" fill="none" xmlns="http://www.w3.org/2000/svg">
<path d="M6.89646 2.37968H9.0361V3.23554H8.18024V8.7986C8.18024 8.91209 8.13516 9.02094 8.05491 9.10119C7.97465 9.18144 7.86581 9.22653 7.75231 9.22653H1.76132C1.64783 9.22653 1.53898 9.18144 1.45873 9.10119C1.37848 9.02094 1.3334 8.91209 1.3334 8.7986V3.23554H0.477539V2.37968H2.61718V1.0959C2.61718 0.982403 2.66226 0.873558 2.74252 0.793306C2.82277 0.713054 2.93161 0.667969 3.04511 0.667969H6.46853C6.58202 0.667969 6.69087 0.713054 6.77112 0.793306C6.85137 0.873558 6.89646 0.982403 6.89646 1.0959V2.37968ZM3.47303 4.51932V7.08689H4.32889V4.51932H3.47303ZM5.18475 4.51932V7.08689H6.0406V4.51932H5.18475ZM3.47303 1.52382V2.37968H6.0406V1.52382H3.47303Z" fill="#323232"/>
</svg>
